<svg xmlns="http://www.w3.org/2000/svg" id="svg2" version="1.1" viewBox="0 0 504.467 565.348"><g id="layer1" transform="translate(-47.932 -465.43)"><g id="g3683" transform="translate(617.18,-1004.8)"><g id="g3660"><path id="path3658" d="m-548.03 1486.5c-4.3664-5.3458 17.746-5.3857 16.157-5.3857-1.6182 0 1.5486 5.1835 2.6928 4.0393 4.259-4.259 3.8878-5.3857 10.771-5.3857 2.3259 0 4.7394 6.032 6.7321 4.0393 1.911-1.911 9.4249-8.5831 9.4249-5.3857 0 2.5834 6.3752 12.475 10.771 8.0785 6.5069-6.5069 12.399-0.281 18.85-6.7321 5.3092-5.3092 11.793 4.0393 18.85 4.0393 5.3261 0 18.708-5.5274 21.543-2.6929 0.8272 0.8272 0.8895 3.1376 2.6928 4.0393 10.363 5.1816 17.053-3.589 21.543-8.0785 2.1238-2.1239 3.6579 6.3507 4.0393 6.7321 3.6326 3.6325 15.64-0.5171 17.503 1.3464 0.52014 0.5201 6.7186-2.6929 9.4249-2.6929 4.481 0 18.271 8.6572 22.889 4.0393 1.5613-1.5613 6.9587-9.1983 10.771-5.3857 2.6888 2.6889 0.4176 4.4569 2.6928 6.7321 9.7434 9.7434 20.878-9.1977 24.236-8.0785 3.5776 1.1926 3.7205 3.7205 5.3857 5.3857 1.1507 1.1507 10.425 0 12.118 0 5.1744 0 9.4429-5.3767 14.811-2.6929 2.6572 1.3287 24.027 6.941 28.275 2.6929 1.7703-1.7703 3.8948-4.4399 6.7321-5.3857 1.3031-0.4344 1.7106 4.0393 4.0392 4.0393 6.0384 0 14.193 0.7288 17.503 4.0392 0.92915 0.9292 10.657-5.7508 12.118-5.3857 12.541 3.1353 23.073 1.3465 35.007 1.3465 6.3889 0 16.02-4.085 20.196-2.6929 0.0993 0.033 39.958 8.5135 44.432 4.0393 1.8152-1.8152 2.5212-5.214 4.0392-6.7321 2.1142-2.1143 5.352 4.0392 8.0785 4.0392 5.5542 0 15.622 3.5042 17.503 5.3857 0.38243 0.3824 6.7321-0.2894 6.7321 0 0 4.9572-2.1589 11.305 1.3464 14.811 0.06159 0.062 8.7843 3.0132 6.7321 4.0393-3.5566 1.7783-7.5139 2.4105-10.771 4.0392-1.3414 0.6707 5.3857 9.5911 5.3857 12.118 0 15.711-5.8947 17.832 2.6928 35.007 2.9816 5.9632-6.9181 33.66-5.3857 33.66 7.1773 0 1.3464 25.033 1.3464 26.928 0 7.0285 5.5408 24.158 2.6928 25.582-4.5395 2.2698-9.4249 9.7115-9.4249 12.118 0 3.5656 3.945 6.6378 5.3857 8.0785 1.6069 1.6069 3.0017 37.391 2.6928 37.7-3.314 3.3141-2.9068 6.9461-5.3857 9.425-8.2936 8.2936 2.6928 27.69 2.6928 39.046v29.621c0 0.7307 0.71988 7.7186 0 8.0785-0.89761 0.4488-3.4025 0.6368-2.6928 1.3464 1.4794 1.4794 19.292 11.897 13.464 14.811-2.6993 1.3496 5.9097 11.856 2.6928 13.464-4.1832 2.0916-15.023 3.118-17.503 8.0785-4.2638 8.5277 2.6785 33.646 4.0393 35.007 3.137 3.1369-1.0911 15.902-2.6928 17.503-0.50041 0.5004 5.3857 32.272 5.3857 39.046 0 7.7026-9.1879 39.283-2.6928 45.778 0.394 0.394 6.7321 2.4309 6.7321 2.6928 0 6.694-12.118 13.113-12.118 20.196 0 7.9055 2.1898 36.694 5.3857 43.085 0.05362 0.1072 2.6194 3.4028 1.3464 4.0392-9.4235 4.7118-19.905-2.7899-20.196-2.6928-15.372 5.124-36.218 6.8674-45.778-2.6928-2.9209-2.9209-4.104 4.0392-10.771 4.0392-12.651 0-40.747-6.3779-48.471 1.3464-0.1942 0.1942-3.8209 2.9113-5.3857 1.3465-10.35-10.35-33.197-1.4864-39.046-5.3857-1.9955-1.3303-2.7656-5.4221-5.3857-6.7321-1.3094-0.6547-5.577 2.1153-6.7321 2.6928-10.203 5.1017-24.818 3.6572-36.353 9.425-7.23 3.615-10.769-10.772-21.543-5.3857-20.684 10.342-44.197 0-57.896 0-0.86243 0-8.5465 5.8249-9.4249 5.3857-1.7628-0.8815-5.441-5.441-6.7321-6.7321-2.6928-2.6929-10.771 0-13.464-2.6929-4.6052-4.6052-22.387 5.1347-25.582 6.7321-5.7766 2.8883-13.675-2.6928-20.196-2.6928-24.339 0-54.931 1.3464-83.478 1.3464-1.9003 0-18.889 3.9605-20.196 1.3464-1.0234-2.0468 3.6349-6.7321 1.3464-6.7321-3.4063 0-5.4702 1.0929-6.7321-2.6928-1.2412-3.7236 5.6049-8.517 6.7321-10.771 1.3027-2.6053-6.1413-5.2207-2.6928-12.118 0.78732-1.5746 6.0942-15.448 2.6928-18.85-0.88152-0.8815-6.8948-3.8765-4.0393-6.7321 2.0321-2.032 4.1005-4.1617 5.3857-6.7321 3.8396-7.6792-8.4982-23.816-5.3857-26.928 2.2654-2.2655 6.7321-23.559 6.7321-25.582 0-10.156-7.3144-15.393-13.464-21.543-3.5412-3.5411 10.771-22.3 10.771-29.621 0-4.1203 2.0049-24.924 1.3464-25.582-2.0252-2.0252-4.0685-1.3757-5.3857-2.6929-7.1166-7.1165 4.5586-42.778 6.7321-47.125 4.7009-9.4018-4.699-19.51-8.0785-22.889-4.7005-4.7005 6.293-24.265 8.0785-29.621 2.8182-8.4545-0.54869-22.091-5.3857-26.928-7.6642-7.6642 8.2017-28.09 2.6928-36.353-2.4112-3.6168-2.7197-4.0661-5.3857-6.7321-0.42839-0.4284 1.6376-31.259 4.0393-33.66 11.853-11.853 0-73.198 0-95.596 0-4.6233 7.6874-17.895 4.0392-21.543-4.2488-4.2488-5.8875-8.8313-8.0785-12.118-5.5888-8.3832 9.0469-14.778 10.771-16.157 3.4849-2.7879 0.85417-4.2709 1.3464-6.7321" style="stroke:gray;stroke-width:1px;fill:#999"/><path id="path3656" style="stroke:gray;stroke-width:1px;fill:#ccc" d="m-552.03 1480.5c-4.3664-5.3458 17.746-5.3857 16.157-5.3857-1.6182 0 1.5486 5.1835 2.6928 4.0393 4.259-4.259 3.8878-5.3857 10.771-5.3857 2.3259 0 4.7394 6.032 6.7321 4.0393 1.911-1.911 9.4249-8.5831 9.4249-5.3857 0 2.5834 6.3752 12.475 10.771 8.0785 6.5069-6.5069 12.399-0.281 18.85-6.7321 5.3092-5.3092 11.793 4.0393 18.85 4.0393 5.3261 0 18.708-5.5274 21.543-2.6929 0.8272 0.8272 0.8895 3.1376 2.6928 4.0393 10.363 5.1816 17.053-3.589 21.543-8.0785 2.1238-2.1239 3.6579 6.3507 4.0393 6.7321 3.6326 3.6325 15.64-0.5171 17.503 1.3464 0.52014 0.5201 6.7186-2.6929 9.4249-2.6929 4.481 0 18.271 8.6572 22.889 4.0393 1.5613-1.5613 6.9587-9.1983 10.771-5.3857 2.6888 2.6889 0.4176 4.4569 2.6928 6.7321 9.7434 9.7434 20.878-9.1977 24.236-8.0785 3.5776 1.1926 3.7205 3.7205 5.3857 5.3857 1.1507 1.1507 10.425 0 12.118 0 5.1744 0 9.4429-5.3767 14.811-2.6929 2.6572 1.3287 24.027 6.941 28.275 2.6929 1.7703-1.7703 3.8948-4.4399 6.7321-5.3857 1.3031-0.4344 1.7106 4.0393 4.0392 4.0393 6.0384 0 14.193 0.7288 17.503 4.0392 0.92915 0.9292 10.657-5.7508 12.118-5.3857 12.541 3.1353 23.073 1.3465 35.007 1.3465 6.3889 0 16.02-4.085 20.196-2.6929 0.0993 0.033 39.958 8.5135 44.432 4.0393 1.8152-1.8152 2.5212-5.214 4.0392-6.7321 2.1142-2.1143 5.352 4.0392 8.0785 4.0392 5.5542 0 15.622 3.5042 17.503 5.3857 0.38243 0.3824 6.7321-0.2894 6.7321 0 0 4.9572-2.1589 11.305 1.3464 14.811 0.06159 0.062 8.7843 3.0132 6.7321 4.0393-3.5566 1.7783-7.5139 2.4105-10.771 4.0392-1.3414 0.6707 5.3857 9.5911 5.3857 12.118 0 15.711-5.8947 17.832 2.6928 35.007 2.9816 5.9632-6.9181 33.66-5.3857 33.66 7.1773 0 1.3464 25.033 1.3464 26.928 0 7.0285 5.5408 24.158 2.6928 25.582-4.5395 2.2698-9.4249 9.7115-9.4249 12.118 0 3.5656 3.945 6.6378 5.3857 8.0785 1.6069 1.6069 3.0017 37.391 2.6928 37.7-3.314 3.3141-2.9068 6.9461-5.3857 9.425-8.2936 8.2936 2.6928 27.69 2.6928 39.046v29.621c0 0.7307 0.71988 7.7186 0 8.0785-0.89761 0.4488-3.4025 0.6368-2.6928 1.3464 1.4794 1.4794 19.292 11.897 13.464 14.811-2.6993 1.3496 5.9097 11.856 2.6928 13.464-4.1832 2.0916-15.023 3.118-17.503 8.0785-4.2638 8.5277 2.6785 33.646 4.0393 35.007 3.137 3.1369-1.0911 15.902-2.6928 17.503-0.50041 0.5004 5.3857 32.272 5.3857 39.046 0 7.7026-9.1879 39.283-2.6928 45.778 0.394 0.394 6.7321 2.4309 6.7321 2.6928 0 6.694-12.118 13.113-12.118 20.196 0 7.9055 2.1898 36.694 5.3857 43.085 0.05362 0.1072 2.6194 3.4028 1.3464 4.0392-9.4235 4.7118-19.905-2.7899-20.196-2.6928-15.372 5.124-36.218 6.8674-45.778-2.6928-2.9209-2.9209-4.104 4.0392-10.771 4.0392-12.651 0-40.747-6.3779-48.471 1.3464-0.1942 0.1942-3.8209 2.9113-5.3857 1.3465-10.35-10.35-33.197-1.4864-39.046-5.3857-1.9955-1.3303-2.7656-5.4221-5.3857-6.7321-1.3094-0.6547-5.577 2.1153-6.7321 2.6928-10.203 5.1017-24.818 3.6572-36.353 9.425-7.23 3.615-10.769-10.772-21.543-5.3857-20.684 10.342-44.197 0-57.896 0-0.86243 0-8.5465 5.8249-9.4249 5.3857-1.7628-0.8815-5.441-5.441-6.7321-6.7321-2.6928-2.6929-10.771 0-13.464-2.6929-4.6052-4.6052-22.387 5.1347-25.582 6.7321-5.7766 2.8883-13.675-2.6928-20.196-2.6928-24.339 0-54.931 1.3464-83.478 1.3464-1.9003 0-18.889 3.9605-20.196 1.3464-1.0234-2.0468 3.6349-6.7321 1.3464-6.7321-3.4063 0-5.4702 1.0929-6.7321-2.6928-1.2412-3.7236 5.6049-8.517 6.7321-10.771 1.3027-2.6053-6.1413-5.2207-2.6928-12.118 0.78732-1.5746 6.0942-15.448 2.6928-18.85-0.88152-0.8815-6.8948-3.8765-4.0393-6.7321 2.0321-2.032 4.1005-4.1617 5.3857-6.7321 3.8396-7.6792-8.4982-23.816-5.3857-26.928 2.2654-2.2655 6.7321-23.559 6.7321-25.582 0-10.156-7.3144-15.393-13.464-21.543-3.5412-3.5411 10.771-22.3 10.771-29.621 0-4.1203 2.0049-24.924 1.3464-25.582-2.0252-2.0252-4.0685-1.3757-5.3857-2.6929-7.1166-7.1165 4.5586-42.778 6.7321-47.125 4.7009-9.4018-4.699-19.51-8.0785-22.889-4.7005-4.7005 6.293-24.265 8.0785-29.621 2.8182-8.4545-0.54869-22.091-5.3857-26.928-7.6642-7.6642 8.2017-28.09 2.6928-36.353-2.4112-3.6168-2.7197-4.0661-5.3857-6.7321-0.42839-0.4284 1.6376-31.259 4.0393-33.66 11.853-11.853 0-73.198 0-95.596 0-4.6233 7.6874-17.895 4.0392-21.543-4.2488-4.2488-5.8875-8.8313-8.0785-12.118-5.5888-8.3832 9.0469-14.778 10.771-16.157 3.4849-2.7879 0.85417-4.2709 1.3464-6.7321"/><g id="g3633" transform="matrix(1.0894,0,0,1.0894,39.593,-58.258)"><path id="path3625" d="m-472.59 1756.5c14.391 43.534 33.647 111.79 30.636 155.32 24.758-10.924 37.728-7.4979 55.977 1.1052l0.90435-110.65z" style="stroke:#000;stroke-width:1px;fill:#e9c6af"/><path id="path3615" d="m-301.6 1546.5c192.77 30.189 106.72 262.27 18.85 327.18-43.518 32.148-115.18-17.037-152.15-56.55-50.539-54.029-90.14-167.75-63.282-212.73 60.707-101.67 199.47-74.671 196.58-57.896z" style="stroke:#000;stroke-width:1px;fill:#e9c6af"/><g id="g4088" transform="matrix(4.121,0,0,3.3363,-1864.4,-2179.2)"><path id="path4070" d="m367.22 1154.2c-0.79154 9.0705-3.8667 10.943-10.916 10.943-7.049 0-21.778-7.3581-13.225-10.481 2.5936-0.9471 6.2049 0.3572 13.043-8.846 5.8637-7.8917 12.144-3.5985 11.098 8.3841z" style="color:#000;stroke:#000;fill:#fff"/><ellipse id="path4072" style="color:#000;stroke:#000;stroke-linecap:round;stroke-opacity:.99526;fill:#000" cx="357.37" cy="1157.7" d="m 362.68799,1157.7 c 0,1.7622 -2.38094,3.1908 -5.31799,3.1908 -2.93706,0 -5.318,-1.4286 -5.318,-3.1908 0,-1.7623 2.38094,-3.1908 5.318,-3.1908 2.93705,0 5.31799,1.4285 5.31799,3.1908 z" rx="5.318" ry="3.191" transform="translate(-4.619,-2.3095)"/><path id="path4074" style="color:#000;stroke:#000;fill:#fff" d="m400.02 1156c8.2381 3.8772-3.8667 8.1717-10.916 8.1717-7.049 0-9.2605-3.3756-10.916-12.329-2.3987-12.975 10.596-10.107 12.119-5.1508 2.4122 7.8471 5.7466 7.4415 9.7123 9.3079z"/><ellipse id="path4076" style="color:#000;stroke:#000;stroke-linecap:round;stroke-opacity:.99526;fill:#000" cx="357.37" cy="1157.7" d="m 362.68799,1157.7 c 0,1.7622 -2.38094,3.1908 -5.31799,3.1908 -2.93706,0 -5.318,-1.4286 -5.318,-3.1908 0,-1.7623 2.38094,-3.1908 5.318,-3.1908 2.93705,0 5.31799,1.4285 5.31799,3.1908 z" rx="5.318" ry="3.191" transform="translate(31.871,-2.3095)"/><path id="path4078" d="m345.04 1143.8c10.205 4.8738 18.034-18.189 23.557-8.776" style="stroke:#000;stroke-width:1px;fill:none"/><path id="path4080" d="m385.22 1131.8c8.7353 8.7494 10.288 20.657 15.705 15.243" style="stroke:#000;stroke-width:1px;fill:none"/><path id="path4082" d="m354.28 1181.2c12.217 0.4209 24.945 3.4014 36.028-1.8476" style="stroke:#000;stroke-width:1px;fill:red"/><path id="path4084" style="stroke:#000;stroke-width:1px;fill:red" d="m354.28 1181.2c4.1746 10.111 38.269 1.5878 32.333 14.319"/><path id="path4086" d="m361.67 1172.9c3.1357-1.093 6.2844-2.2249 10.624-6.9284 3.5412 3.5857 7.0824 5.8055 10.624 6.9284" style="stroke:#000;stroke-width:1px;fill:none"/></g><path id="path3617" d="m-488.75 1708.1 20.196-4.0393-10.771-79.439c26.671-35.011 60.597-44.626 94.249-55.203l57.896 37.7-26.928-39.046 45.778 33.66-20.196-37.7c47.766-2.7294 69.493 16.86 92.903 35.007l40.393 90.21 14.811-8.0785c-20.434-292.83-443.64-237.46-308.33 26.928z" style="stroke:#000;stroke-width:1px;fill:maroon"/><path id="path3619" d="m-477.99 1708.4c-28.261-37.404-72.672-71.931-59.214-24.456 13.458 47.474 68.635 60.422 68.635 60.422" style="stroke:#000;stroke-width:1.0334px;fill:#e9c6af"/><path id="path3621" style="stroke:#000;stroke-width:1px;fill:#e9c6af" d="m-196.76 1689.3c28.275-30.762 72.707-56.407 59.242-13.996-13.464 42.411-68.667 46.242-68.667 46.242"/><path id="path3623" d="m-437.59 1507.5-45.778-39.046 36.353 17.504-20.196-51.164 48.471 70.014h1.3464" style="stroke:#000;stroke-width:1px;fill:maroon"/><path id="path3627" d="m-266.59 1764.6c-14.811 0-122.52 2.6928-122.52 2.6928 18.766 11.038 74.834 12.849 106.37 17.503z" style="stroke:#000;stroke-width:1px;fill:#000"/><path id="path3631" d="m-425.47 1510.1c-9.8169 4.1015-19.969 7.8517-26.928 14.811-2.8562 2.8562 12.118-4.0392 12.118 0 0 1.0384-22.813 10.696-22.889 10.771-2.9392 2.9391-17.503 7.8225-17.503 10.771 0 3.042 15.009-6.9301 14.811-6.7321-5.7925 5.7925-18.847 13.464-6.7321 13.464h20.196c1.3464 0 4.9913-0.9521 4.0392 0-5.1902 5.1902-15.545 2.0806-20.196 6.7321-1.7475 1.7475 11.575-3.2356 13.464-1.3464 1.9223 1.9223-10.332 5.8246-9.4249 6.7321 2.9172 2.9172 14.586-2.9173 17.503 0 2.5294 2.5293-10.771 5.4495-10.771 5.3856 0-3.1416 6.2833 0 9.4249 0h18.85c-8.4251 0-16.157 5.4232-16.157 4.0393 0-6.8185 25.582-10.23 25.582-8.0785 0 1.8505 3.0015-4.5581 1.3464-5.3857-1.6057-0.8028-5.3857 1.7952-5.3857 0 0-3.5053 4.9433-5.1645 8.0785-6.7321 1.6057-0.8028 7.1809 0 5.3857 0-21.562 0-8.7193-3.3336-10.771-5.3857-0.097-0.097-5.2154 0.3405-5.3857 0-2.5845-5.169 12.412-5.3856-8.0785-5.3856-1.6385 0 12.118-5.3841 12.118-2.6929 0 2.4169-7.813-0.5311-6.7321-2.6928 1.4192-2.8385 8.9761-4.4881 6.7321-6.7321-1.2694-1.2694-5.3857 1.7952-5.3857 0 0-2.4644 18.409-10.771 14.811-10.771-15.698 0-10.348-8.1161-12.118-10.771z" style="fill:#fff"/></g></g></g></g><metadata id="metadata28"/></svg>